<?xml version="1.0" encoding="UTF-8"?>
<svg width="36px" height="36px" viewBox="0 0 36 36" version="1.1" xmlns="http://www.w3.org/2000/svg" xmlns:xlink="http://www.w3.org/1999/xlink">
    <!-- Generator: Sketch 48.1 (47250) - http://www.bohemiancoding.com/sketch -->
    <title>convenient icon</title>
    <desc>Created with Sketch.</desc>
    <defs></defs>
    <g id="Cleaning" stroke="none" stroke-width="1" fill="none" fill-rule="evenodd" transform="translate(-283.000000, -1542.000000)">
        <g id="convenient-icon" transform="translate(283.000000, 1542.000000)" fill="#434B4D">
            <g transform="translate(1.000000, 1.000000)" id="Fill-4">
                <path d="M6.8945017,4.00948581 C6.99674527,3.99518314 7.06849514,3.98850856 7.13486378,3.98850856 C7.59765045,3.98850856 7.65953472,4.2755155 7.66401909,4.30602786 C7.66641075,4.31874135 8.0954152,6.48289444 8.95103243,10.7984871 C9.25417564,9.27763642 10.0021681,8.38133568 10.7277387,7.85499738 L11.0165319,2.481007 C11.0165319,2.14918502 11.150166,2.04334526 11.249719,1.98708808 C11.3618282,1.92415633 11.5340278,1.88601587 11.7080213,1.88601587 L11.7690087,1.88792289 C12.0255145,1.88887641 12.3627389,1.93083091 12.5125167,2.12439373 C12.6093791,2.2473967 12.5986166,2.39995853 12.595926,2.42951738 C12.5914416,2.46193677 12.5896478,2.49435616 12.5896478,2.52772906 L12.5896478,7.10363037 C13.2892091,7.00446519 13.9878735,7.07121099 14.6354161,7.31817044 L15.0219685,4.57968564 C15.0990996,3.79017818 15.408521,3.68815246 15.670408,3.68815246 C15.7663735,3.68815246 15.8506796,3.70531567 15.9242232,3.72057185 C16.1260197,3.75775879 16.2749007,3.83022566 16.3699693,3.9332049 C16.4793878,3.46217025 16.5645908,3.13130179 16.605847,3.02260149 C16.704503,2.76133936 16.8309622,2.52105448 16.9690807,2.29125823 C16.7574186,2.17683686 16.5089846,2.07957869 16.2076352,2.02141449 C16.1134635,2.00329778 15.9161513,1.96515732 15.670408,1.96515732 C15.1717464,1.96515732 14.6390036,2.13106831 14.2156793,2.52677555 C14.2336168,2.20639571 14.1995356,1.58470626 13.7618614,1.02404155 C13.4587182,0.634055374 12.8676786,0.1687418 11.7977086,0.163020731 L11.7080213,0.16206722 C11.3986,0.16206722 10.937607,0.214510348 10.4963453,0.460516295 C9.8120309,0.840967353 9.40215975,1.56754306 9.39588164,2.40472609 L9.29991618,4.20209512 L9.26583499,4.03046306 C9.13220086,3.14751148 8.36358035,2.26360639 7.13486378,2.26360639 C6.9958484,2.26360639 6.84517366,2.27600204 6.71064265,2.29602578 C5.75995684,2.40854013 4.7832617,3.17611683 4.7429024,4.43665893 C4.73213991,4.72557289 5.58237591,11.8969323 5.83977857,13.538879 C5.86130354,13.6799987 5.89538473,13.8525842 5.93753778,14.0575892 C6.04695633,14.5925091 6.09807812,14.9519829 6.11691246,15.1922678 C6.01377202,15.0692648 5.88551912,14.8900046 5.73663813,14.6325566 C5.67834136,14.5333914 5.6128696,14.4113419 5.53394474,14.2625941 C4.93214268,13.1403112 3.92585072,11.2599867 2.26484117,11.2599867 C1.82268258,11.2599867 1.39756458,11.3953853 1.00114654,11.6661825 C-1.18004959,13.1431717 0.760784462,16.3994132 1.58859862,17.7896329 L1.63164854,17.8611462 C1.68007971,17.9431482 1.72312963,18.0127546 1.75541707,18.0718723 C2.34286915,19.1131067 3.1339115,20.2277616 3.89984139,21.3071365 C4.2738376,21.8344283 4.65949317,22.3798369 4.98595509,22.8699417 C5.08281742,23.013922 5.17609225,23.1531346 5.26757334,23.2856727 C5.16712352,24.7998489 4.92945206,27.566939 4.7393149,29.6265237 C4.70343997,29.9964861 4.81913664,30.3683556 5.05501434,30.6448739 C5.28999517,30.9223457 5.62542583,31.0806286 5.97700021,31.0806286 L9.84880271,31.0806286 C9.22996006,30.6963635 8.7393703,30.1061399 8.46582391,29.3919599 C8.46283434,29.3843318 7.77224181,29.372254 6.39404634,29.3557264 C6.55817417,27.5564504 6.81647372,24.600565 6.90616106,23.0816213 C6.91871728,22.8766163 6.86131739,22.6754254 6.74562072,22.5114214 C6.60481159,22.3102305 6.46220872,22.1014115 6.30974024,21.8735223 C5.96982522,21.3624402 5.57609779,20.806543 5.19402972,20.2687626 C4.45500603,19.2256211 3.68997301,18.1481532 3.14826148,17.1870137 C3.11059279,17.1202679 3.06036788,17.0363589 3.00296798,16.9391007 L2.95991806,16.8666338 C2.48816265,16.0771264 1.05585581,13.6733241 1.87470123,13.1183804 C2.0074385,13.0287504 2.1356914,12.9839353 2.26484117,12.9839353 C2.98233989,12.9839353 3.697148,14.3198048 4.13033786,15.127429 C4.21374708,15.2847584 4.28998132,15.423971 4.35545308,15.5383924 C4.98954258,16.6273025 5.65950702,17.1793856 6.34740892,17.1793856 C6.48104306,17.1793856 6.61288345,17.1584083 6.7393426,17.1164538 C8.13129013,16.6663964 7.73487209,14.7317218 7.52141621,13.6838127 C7.4882319,13.5207622 7.4577382,13.374875 7.43980073,13.2556861 C7.1241013,11.249498 6.44516812,5.17467677 6.36803701,4.4509616 C6.41377756,4.06574298 6.87477049,4.01234634 6.8945017,4.00948581 Z M33.9818724,11.8263724 C33.92806,11.4068274 33.7379228,10.8127898 33.134327,10.3293595 C32.9468805,10.1520064 32.4697438,9.77632289 31.7621107,9.77632289 C31.2679335,9.77632289 30.7809312,9.95367602 30.3091758,10.3055217 L30.8526811,9.17847123 C31.030262,8.8752546 31.3603114,8.16965614 31.1890086,7.32579854 C31.0966306,6.86906656 30.8212905,6.22353933 30.0437012,5.7448766 C29.9665701,5.69624751 29.7889892,5.58277966 29.5459365,5.48838202 C29.3719431,5.42068271 29.0948092,5.33963424 28.7656566,5.33963424 C28.5629633,5.33963424 28.2894169,5.37300714 27.9952424,5.4950566 C28.1154234,5.20328211 28.2894169,4.6016164 28.054436,3.90936711 C27.8929988,3.4326114 27.4867152,2.77850256 26.4947732,2.39233044 C26.2678642,2.29221174 25.7252558,2.11104457 25.1682974,2.19304655 C24.4032644,2.30174685 23.7844217,2.83475974 23.5081847,3.62045315 L22.840014,5.27384195 L22.8633327,5.10125639 C23.0211825,4.22211886 22.5835082,3.11318507 21.4292322,2.66694173 C21.2911137,2.61354509 21.1485108,2.57159058 21.0175673,2.54203173 C20.842677,2.49721669 20.6498492,2.47433242 20.4579183,2.47433242 C19.5440043,2.47433242 18.8040837,2.98446103 18.4821061,3.83690024 C18.3816563,4.10102291 16.8722184,11.1484258 16.584322,12.789419 C16.5592096,12.9333992 16.5358908,13.1107523 16.5098815,13.3119432 C16.4399254,13.8554448 16.3735568,14.2111045 16.3125694,14.4447148 C16.2560663,14.2911995 16.1932852,14.0757059 16.1349884,13.7801174 C16.1134635,13.6647425 16.0910416,13.5245763 16.0650323,13.3634329 C15.8605452,12.0876346 15.521527,9.95367602 13.9591735,9.34914977 C13.5484055,9.18895985 13.0990719,9.16226154 12.6416665,9.27000833 C10.1151741,9.86595296 10.8918665,13.6304161 11.2246065,15.2418504 C11.2506158,15.3715279 11.2730377,15.4821352 11.2882845,15.5650907 C11.5035341,16.753166 11.8891897,18.0909425 12.2730515,19.4191839 C12.4596012,20.0723392 12.6371821,20.6883076 12.7806819,21.2470653 C12.8255256,21.4177438 12.8685755,21.5817478 12.9116254,21.7400307 C12.3268639,23.1350179 11.2147409,25.6475205 10.3752674,27.5068678 C10.2227989,27.8415503 10.2120364,28.234397 10.34298,28.5795681 C10.4766141,28.9247393 10.7411918,29.1955365 11.072138,29.3252141 L22.6624331,33.8095783 C22.6740925,33.8143458 22.6857518,33.8191134 22.6974112,33.823881 C22.8337359,33.8763241 22.9754419,33.9020689 23.1189417,33.9020689 C23.6427157,33.9020689 24.1126774,33.5521302 24.2911552,33.0267454 C24.3180614,32.9466505 24.3386895,32.863695 24.3512457,32.7807395 C24.9324197,30.3731231 25.6893809,27.3409568 26.0257084,26.1662307 C26.7503821,24.9075957 28.8463752,21.1726914 29.5486271,18.9176369 C30.6203909,17.5855814 32.8760275,14.7431639 33.4195328,13.8125367 C33.651823,13.4902499 34.0948784,12.7388829 33.9818724,11.8263724 Z M32.3136341,12.7846514 C32.2900876,12.8161173 32.2683523,12.8485367 32.2484283,12.8838166 C31.9522858,13.4120619 30.4281023,15.3925052 28.3686886,17.9297991 C28.2953322,18.0194291 28.2409941,18.1243154 28.2083913,18.2368297 C27.7238766,19.9007072 26.0846775,23.0043869 24.7135464,25.3566995 C24.677321,25.4177243 24.6492463,25.4835166 24.6293223,25.5512159 C24.267974,26.770757 23.424828,30.1471409 22.9593317,32.0493962 L12.0165457,27.855853 C12.9085961,25.892573 14.0234326,23.3896055 14.5414557,22.1452731 C14.6184347,21.9593383 14.6311136,21.7486123 14.5758698,21.552189 C14.5070416,21.3119041 14.4382133,21.0620841 14.3684795,20.7912868 C14.2163328,20.2096449 14.0343002,19.5793738 13.8296267,18.8794964 C13.4655615,17.629443 13.089723,16.335528 12.8895777,15.2380363 C12.8723707,15.1426852 12.8461073,15.0177752 12.8153157,14.8690274 C12.6251324,13.956517 12.0464317,11.1760777 13.0018765,10.9539095 C13.1576457,10.9176761 13.2925852,10.9205366 13.4175629,10.9691657 C14.0995059,11.2304278 14.3449329,12.7455575 14.4898345,13.6533003 C14.5197205,13.8344675 14.5459839,13.9956109 14.5713417,14.1291025 C14.81858,15.381063 15.2750199,16.1429187 15.9288883,16.3965527 C16.0574885,16.4442283 16.1906168,16.4737871 16.3210282,16.4795082 C16.3355184,16.4804617 16.3798945,16.4823687 16.393479,16.4823687 C17.7954017,16.4823687 18.0444513,14.5724853 18.176674,13.5455535 C18.1993149,13.3758285 18.2183332,13.2242202 18.2382572,13.1050313 C18.5950773,11.0988432 19.9281718,5.12032662 20.0830354,4.43761244 C20.1274115,4.34035427 20.2315595,4.19828107 20.540381,4.19828107 C20.6372839,4.19828107 20.7052065,4.21449076 20.7242248,4.21925832 C20.7405263,4.22402588 20.7568277,4.22783992 20.7731291,4.23165397 C20.832901,4.2421426 20.899918,4.26407336 20.9615012,4.28695763 C21.3916777,4.45191511 21.3690369,4.72557289 21.3599805,4.77801602 C21.3572636,4.79708624 21.3536411,4.81520296 21.3509242,4.8352267 L20.4606851,11.4344793 C20.4027245,11.8626059 20.654491,12.2688017 21.0493478,12.3870372 C21.4451102,12.5033656 21.8607966,12.2926395 22.0219996,11.8959788 L25.1337609,4.28123656 C25.141006,4.26502687 25.1464398,4.24881718 25.1518736,4.23260748 C25.2415315,3.96943833 25.4018289,3.91890222 25.5177501,3.90269253 C25.701594,3.87790123 25.8917773,3.93415841 26.0412071,3.99899718 C26.2821059,4.09148779 26.5882105,4.25358473 26.6706233,4.49196259 C26.7204332,4.63784984 26.6660951,4.77134144 26.6479824,4.80948189 C26.6343979,4.83904075 26.621719,4.86764609 26.6126627,4.89815845 L24.1004316,12.161055 C23.9537187,12.5863211 24.1429964,13.0573557 24.533325,13.2423369 C24.9245593,13.4282716 25.3846218,13.2642677 25.5902009,12.8685604 L28.2527674,7.71006364 C28.5498156,7.06358289 28.8369019,7.06358289 28.9292766,7.06358289 C29.0279908,7.06358289 29.1140261,7.09218824 29.1556853,7.10744442 C29.2543995,7.14558488 29.3304729,7.19421396 29.3875278,7.22949388 C29.6112197,7.36584602 29.7416311,7.51936135 29.7760452,7.68813288 C29.8303833,7.95893012 29.6592183,8.24593706 29.6392943,8.27740294 C29.6257098,8.30219423 29.6094084,8.32793904 29.5967295,8.35463736 L26.564664,14.5753459 C26.383537,14.9472153 26.4813456,15.4029938 26.7983178,15.6566278 C27.1134787,15.9083548 27.5581454,15.8845171 27.8506655,15.6003707 C28.9374273,14.5362519 30.3873487,12.8428156 30.8048464,12.3479432 C30.8111858,12.3422221 30.8329211,12.3164773 30.8383549,12.3088492 C31.2477018,11.7949066 31.6543319,11.5012251 31.9550027,11.5012251 C32.1316015,11.5012251 32.2411833,11.6070648 32.2411833,11.6070648 C32.2719749,11.6385307 32.3036721,11.6680896 32.3380862,11.6938344 C32.477554,11.7996741 32.5545329,11.9179095 32.5726456,12.0542617 C32.6052485,12.3174308 32.4259328,12.6368572 32.3136341,12.7846514 Z"></path>
            </g>
        </g>
    </g>
</svg>